<svg width="24" height="24" viewBox="0 0 24 24" fill="none" xmlns="http://www.w3.org/2000/svg">
    <path d="M17.5 0C17.224 0 17 0.224 17 0.5C17 3.944 14.57 6 10.5 6H3.5C1.57 6 0 7.57 0 9.5V11.5C0 12.658 0.565 13.686 1.435 14.324L5.043 22.378C5.481 23.363 6.46 24 7.539 24C8.382 24 9.16 23.578 9.62 22.87C10.079 22.163 10.149 21.28 9.805 20.505L7.28 15H10.501C14.571 15 17.001 17.056 17.001 20.5C17.001 20.776 17.225 21 17.501 21C17.777 21 18.001 20.776 18.001 20.5V0.5C18.001 0.224 17.776 0 17.5 0ZM8.893 20.916C9.101 21.383 9.06 21.896 8.782 22.325C8.503 22.754 8.051 23 7.539 23C6.855 23 6.234 22.597 5.956 21.971L2.801 14.93C3.027 14.976 3.261 15 3.5 15H6.179L8.893 20.916ZM17 16.902C15.783 15.056 13.514 14 10.5 14H3.5C2.122 14 1 12.879 1 11.5V9.5C1 8.121 2.122 7 3.5 7H10.5C13.514 7 15.783 5.943 17 4.098V16.902ZM23.947 15.723C23.859 15.898 23.682 15.999 23.5 15.999C23.425 15.999 23.349 15.982 23.276 15.946L21.276 14.946C21.029 14.822 20.929 14.522 21.052 14.275C21.177 14.028 21.476 13.929 21.723 14.051L23.723 15.051C23.97 15.175 24.07 15.476 23.947 15.723ZM21.052 6.723C20.929 6.476 21.029 6.176 21.276 6.052L23.276 5.052C23.523 4.929 23.823 5.029 23.947 5.276C24.07 5.523 23.97 5.823 23.723 5.947L21.723 6.947C21.651 6.983 21.575 7 21.499 7C21.316 7 21.14 6.897 21.052 6.723ZM20.999 10.499C20.999 10.223 21.223 9.999 21.499 9.999H23.499C23.775 9.999 23.999 10.223 23.999 10.499C23.999 10.775 23.775 10.999 23.499 10.999H21.499C21.223 10.999 20.999 10.775 20.999 10.499Z" fill="#2A2767"/>
</svg>
